<?xml version="1.0" encoding="utf-8"?>
<!-- Generator: Adobe Illustrator 26.2.1, SVG Export Plug-In . SVG Version: 6.00 Build 0)  -->
<svg version="1.1" id="레이어_1" xmlns="http://www.w3.org/2000/svg" xmlns:xlink="http://www.w3.org/1999/xlink" x="0px"
	 y="0px" viewBox="0 0 1920 1000" style="enable-background:new 0 0 1920 1000;" xml:space="preserve">
<g>
	<path d="M76.9,624.2c-0.6-105.6-56.8-100-58.8-242.4c-2.2-143.4,28-187.7,63-114.1v141.5h-1C78.2,330.9,68.7,232.8,42,248.8
		c-6.2,4.7-17.8,16-16.7,77.4c1.6,122.6,58.1,89.6,59.9,242.4c0.6,54.7-4.9,100-7.5,114.1c-12.4,67-26.2,49-49.2,30.2l-0.3-192.4
		l1,1.9C29.3,772.3,76.9,764.7,76.9,624.2z"/>
	<path d="M85.5,246h14l-1.1,285.8c-0.6,174.5,35.4,281.1,53-3.8l0.3-282h12.9v328.2c0,95.3,3.5,136.8,9.5,144.3
		c-18.6,0-22.9-41.5-22.7-172.6c-18.6,301.8-65.6,183-65.7-6.6L85.5,246z"/>
	<path d="M190.9,307.3l-8.4,36.8l21.1-123.6v73.6c36.7-171.7,79.1,31.1,62.7,249c0,0-15.9,187.7-40.3,187.7c0,0-18.6,0-22.1-65.1
		V927l-13,66L190.9,307.3L190.9,307.3z M204.1,631.7c0,61.3,11.3,89.6,21.9,89.6c50.5,0,38.1-679.1-22.4-416.9L204.1,631.7z"/>
	<path d="M364.9,572.3c0,0-2.9,61.3-16,107.5c-10.3,39.6-20,50.9-29.2,50.9c-29.4,0-45.1-180.2-36.8-309.4c0,0,8.9-141.5,34.5-181.1
		c4.3-5.7,13.2-14.1,26.2,3.8c14.3,19.8,14.6,71.7,14.6,79.2c0,60.4-12.9,67-18.3,67.9h-46c-4.1,124.5,5.9,301.8,38.7,301.8
		c9.2,0,24.5-38.7,31.9-120.7L364.9,572.3L364.9,572.3z M294,385.6l43.3-7.5c11-1.9,7-71.7,0-98.1c-11.7-44.3-30.3-16-37.5,35.8
		C297,334.6,294.9,358.2,294,385.6z"/>
	<path d="M425.8,309.2c-23.8,5.7-27.6,70.7-28,98.1v263.2c0,34,4,40.6,6.8,47.2h-22.1c1.3-17.9,2.1-27.3,2.1-47.2l0.2-307.5V246h13
		v141.5c0.5-39.6,12.9-141.5,32.1-141.5c0,0,2.7-0.9,6,0l-6.7,62.3C427.3,309.2,425.8,309.2,425.8,309.2z"/>
	<path d="M492.3,624.2c-0.6-105.6-56.8-100-58.8-242.4c-2.2-143.4,28-187.7,63-114.1v141.5h-1c-1.9-78.3-11.4-176.4-38.1-160.4
		c-6.2,4.7-17.8,16-16.7,77.4c1.6,122.6,58.1,89.6,59.9,242.4c0.6,54.7-4.9,100-7.5,114.1c-12.4,67-26.2,49-49.2,30.2l-0.3-192.4
		l1,1.9C444.7,772.3,492.3,764.7,492.3,624.2z"/>
	<path d="M586.8,572.3c0,0-2.9,61.3-16,107.5c-10.3,39.6-20,50.9-29.2,50.9c-29.4,0-45.1-180.2-36.8-309.4c0,0,8.9-141.5,34.5-181.1
		c4.3-5.7,13.2-14.1,26.2,3.8c14.3,19.8,14.6,71.7,14.6,79.2c0,60.4-12.9,67-18.3,67.9h-46c-4.1,124.5,5.9,301.8,38.7,301.8
		c9.2,0,24.5-38.7,31.9-120.7L586.8,572.3L586.8,572.3z M515.8,385.6l43.3-7.5c11-1.9,7-71.7,0-98.1c-11.7-44.3-30.3-16-37.5,35.8
		C518.8,334.6,516.7,358.2,515.8,385.6z"/>
	<path d="M658.2,717.6L625.3,511l-35.2,206.6h-2.4l36.5-214.1L583.4,246h19.7l31.3,197.1L668,246h2.5l-34.9,204.7l42.2,266.9H658.2z
		"/>
	<path d="M682.7,888.3l0.2-101.9c0,0,28.1,60.4,39.7-68.9l-43.2-471.6H695l34.9,372.6L759,245.9h1.9
		C714.1,839.3,714.4,896.8,682.7,888.3z"/>
	<path d="M857,62c11.1,12.3,19.8,35.8,24.3,44.3l0.8,164.1C863.2-53.1,787.5,16.7,787.5,394c0,178.3,15.1,312.2,41,317.9
		c9.4-0.9,18.3-32.1,27-85.8l0.2-226.4l-45.9-6.6v-5.7l60.3-4.7v333.9c-2.1-55.7-9.2-97.2-14.6-72.6c-8.9,57.5-17.8,84-27,84.9
		c-34-3.8-57.8-152.8-57.8-334.9C770.6,116.7,816,22.4,857,62z"/>
	<path d="M943.1,309.2c-23.8,5.7-27.6,70.7-28,98.1v263.2c0,34,4,40.6,6.8,47.2h-22.1c1.3-17.9,2.1-27.3,2.1-47.2l0.2-307.5V246h13
		v141.5C915.6,347.9,928,246,947.2,246c0,0,2.7-0.9,6,0l-6.7,62.3C944.7,309.2,943.1,309.2,943.1,309.2z"/>
	<path d="M1037.7,572.3c0,0-2.9,61.3-16,107.5c-10.3,39.6-20,50.9-29.2,50.9c-29.4,0-45.1-180.2-36.8-309.4
		c0,0,8.9-141.5,34.5-181.1c4.3-5.7,13.2-14.1,26.2,3.8c14.3,19.8,14.6,71.7,14.6,79.2c0,60.4-12.9,67-18.3,67.9h-46
		c-4.1,124.5,5.9,301.8,38.7,301.8c9.2,0,24.5-38.7,31.9-120.7L1037.7,572.3L1037.7,572.3z M966.7,385.6l43.3-7.5
		c11-1.9,7-71.7,0-98.1c-11.7-44.3-30.3-16-37.5,35.8C969.7,334.6,967.7,358.2,966.7,385.6z"/>
	<path d="M1129.3,572.3c0,0-2.9,61.3-16,107.5c-10.3,39.6-20,50.9-29.2,50.9c-29.4,0-45.1-180.2-36.8-309.4
		c0,0,8.9-141.5,34.5-181.1c4.3-5.7,13.2-14.1,26.2,3.8c14.3,19.8,14.6,71.7,14.6,79.2c0,60.4-12.9,67-18.3,67.9h-46
		c-4.1,124.5,5.9,301.8,38.7,301.8c9.2,0,24.5-38.7,31.9-120.7L1129.3,572.3L1129.3,572.3z M1058.3,385.6l43.3-7.5
		c11-1.9,7-71.7,0-98.1c-11.7-44.3-30.3-16-37.5,35.8C1061.4,334.6,1059.3,358.2,1058.3,385.6z"/>
	<path d="M1147.6,597.8V300.7h-10.3l23.2-168.8V246h32.9l-7.9,54.7h-24.9l-0.5,319.8c-0.2,157.5,36,76.4,47.2-68.9l0.3,1.9
		C1192.3,747.8,1147.6,794.9,1147.6,597.8z"/>
	<path d="M1231.6,56.4c4.6,0,8.4,22.6,8.4,50s-3.8,49-8.4,49s-8.3-21.7-8.3-49S1227,56.4,1231.6,56.4z M1237.9,712.9h-13.3
		c1.3-156.6,1.4-314.1,0.2-466.9h13C1236,398.8,1236.3,556.3,1237.9,712.9z"/>
	<path d="M1264.9,717.6c1.9-6.6,3-13.2,3.2-21.7V246h13.3l-0.2,137.7c22.1-221.7,63.7-177.3,63.7,8.5v303.7l3.2,21.7h-19.2l3.2-21.7
		V399.7c0-171.7-30-206.6-50.8-2.8l-0.3,299c0,8.5,1.1,15.1,3.2,21.7L1264.9,717.6L1264.9,717.6z"/>
	<path d="M1384.8,754.4c-5.7-8.5-9-17.9-11.6-31.1l29.2-95.3c-17.6-22.6-31-100.9-31.9-185.8c-1-100,20.2-200.9,41.8-198.1
		c13.2,1.9,23.8,1.9,52.6,1.9l-28.1,53.8c6,26.4,12.1,67,13.3,125.4c3,131.1-27.6,220.7-45.1,203.7l-20,66
		c14.4,28.3,73.7-13.2,73.7,117.9c0,124.5-32.4,165.1-50.5,165.1C1363.7,977.9,1352.2,901.5,1384.8,754.4z M1456.9,834.5
		c0-41.5-19.8-57.5-35.2-60.4c-16.5-2.8-27.3-8.5-34.8-17c-32.1,119.8,28.3,246.2,60,139.6C1453.5,874.2,1456.9,859.1,1456.9,834.5z
		 M1435.1,435.6c-3.3-125.4-13.2-178.3-27.8-178.3c-15.4,0-23.8,62.2-22.6,178.3c2.1,108.5,12.5,180.2,27.5,180.2
		C1427.3,615.7,1438,542.1,1435.1,435.6z"/>
	<path d="M1525.3,624.2c-0.6-105.6-56.8-100-58.8-242.4c-2.2-143.4,28-187.7,63-114.1v141.5h-1c-1.9-78.3-11.4-176.4-38.1-160.4
		c-6.2,4.7-17.8,16-16.7,77.4c1.6,122.6,58.1,89.6,59.9,242.4c0.6,54.7-4.9,100-7.5,114.1c-12.4,67-26.2,49-49.2,30.2l-0.3-192.4
		l1,1.9C1477.7,772.3,1525.3,764.7,1525.3,624.2z"/>
	<path d="M1538.3,674.2c0-25.5,3.8-48.1,8.3-48.1c4.3,0,8.1,22.6,8.1,48.1c0,26.4-3.8,49-8.1,49
		C1542.1,723.2,1538.3,700.6,1538.3,674.2z"/>
	<path d="M1584.2,307.3c-17.9,113.2-2.9,394.3,34.3,394.3c9.4,0,24.9-47.2,32.5-129.2h0.3c0,0-2.9,61.3-16.2,107.5
		c-10.6,39.6-21.1,50.9-30.8,50.9c-29.4,0-44.5-180.2-36.2-309.4c0,0,8.3-141.5,33.8-181.1c6-7.6,22.4-29.2,41.6,36.8l-7.9,84.9
		C1621.2,290.3,1595.5,225.2,1584.2,307.3z"/>
	<path d="M1735.9,596.9c-9.2,123.6-35.9,169.8-56.1,114.1c-20.5-56.6-32.2-209.4-22.9-333c9.2-121.7,36.4-176.4,56.5-119.8
		C1733.8,313.9,1745.2,475.2,1735.9,596.9z M1723.8,566.7c12.9-133.9,6.3-250-7.8-289.6c-14-38.7-34.5-17.9-46.7,130.2
		c-11.1,138.7-5.9,243.4,8.4,283C1691.7,728.9,1712,693.1,1723.8,566.7z"/>
	<path d="M1885.9,695.9V399.7c0-170.7-29.7-207.5-50.5-6.6v302.8c0,9.4,1,16,3.2,21.7h-19.2c2.1-3.8,3.2-10.4,3.2-21.7V399.7
		c0-171.7-31.6-207.5-52.4-3.8l-0.3,300c0,8.5,1.1,15.1,3.2,21.7h-19.2c1.9-6.6,3-13.2,3.2-21.7V246h13.3l-0.2,137.7
		c21.6-216.9,63.5-179.2,65.3-2.8c22.1-218.8,63.4-173.6,63.4,11.3v303.7c0,9.4,1,16,3.2,21.7h-19.2
		C1884.8,713.8,1885.9,707.2,1885.9,695.9z"/>
</g>
</svg>
